<svg xmlns="http://www.w3.org/2000/svg" width="64" height="64" viewBox="0 0 64 64" fill="none">
  <g clip-path="url(#clip0_550_746)">
    <path d="M64 0H0V64H64V0Z" fill="white"/>
    <path d="M5.93103 4H4V5.93103H5.93103V4Z" fill="black"/>
    <path d="M7.86207 4H5.93103V5.93103H7.86207V4Z" fill="black"/>
    <path d="M9.7931 4H7.86207V5.93103H9.7931V4Z" fill="black"/>
    <path d="M11.7241 4H9.7931V5.93103H11.7241V4Z" fill="black"/>
    <path d="M13.6552 4H11.7241V5.93103H13.6552V4Z" fill="black"/>
    <path d="M15.5862 4H13.6552V5.93103H15.5862V4Z" fill="black"/>
    <path d="M17.5172 4H15.5862V5.93103H17.5172V4Z" fill="black"/>
    <path d="M21.3793 4H19.4483V5.93103H21.3793V4Z" fill="black"/>
    <path d="M25.2414 4H23.3103V5.93103H25.2414V4Z" fill="black"/>
    <path d="M27.1724 4H25.2414V5.93103H27.1724V4Z" fill="black"/>
    <path d="M29.1034 4H27.1724V5.93103H29.1034V4Z" fill="black"/>
    <path d="M38.7586 4H36.8276V5.93103H38.7586V4Z" fill="black"/>
    <path d="M40.6897 4H38.7586V5.93103H40.6897V4Z" fill="black"/>
    <path d="M42.6207 4H40.6897V5.93103H42.6207V4Z" fill="black"/>
    <path d="M44.5517 4H42.6207V5.93103H44.5517V4Z" fill="black"/>
    <path d="M48.4138 4H46.4828V5.93103H48.4138V4Z" fill="black"/>
    <path d="M50.3448 4H48.4138V5.93103H50.3448V4Z" fill="black"/>
    <path d="M52.2759 4H50.3448V5.93103H52.2759V4Z" fill="black"/>
    <path d="M54.2069 4H52.2759V5.93103H54.2069V4Z" fill="black"/>
    <path d="M56.1379 4H54.2069V5.93103H56.1379V4Z" fill="black"/>
    <path d="M58.069 4H56.1379V5.93103H58.069V4Z" fill="black"/>
    <path d="M60 4H58.069V5.93103H60V4Z" fill="black"/>
    <path d="M5.93103 5.93103H4V7.86207H5.93103V5.93103Z" fill="black"/>
    <path d="M17.5172 5.93103H15.5862V7.86207H17.5172V5.93103Z" fill="black"/>
    <path d="M23.3103 5.93103H21.3793V7.86207H23.3103V5.93103Z" fill="black"/>
    <path d="M25.2414 5.93103H23.3103V7.86207H25.2414V5.93103Z" fill="black"/>
    <path d="M31.0345 5.93103H29.1034V7.86207H31.0345V5.93103Z" fill="black"/>
    <path d="M34.8966 5.93103H32.9655V7.86207H34.8966V5.93103Z" fill="black"/>
    <path d="M38.7586 5.93103H36.8276V7.86207H38.7586V5.93103Z" fill="black"/>
    <path d="M40.6897 5.93103H38.7586V7.86207H40.6897V5.93103Z" fill="black"/>
    <path d="M48.4138 5.93103H46.4828V7.86207H48.4138V5.93103Z" fill="black"/>
    <path d="M60 5.93103H58.069V7.86207H60V5.93103Z" fill="black"/>
    <path d="M5.93103 7.86207H4V9.7931H5.93103V7.86207Z" fill="black"/>
    <path d="M9.7931 7.86207H7.86207V9.7931H9.7931V7.86207Z" fill="black"/>
    <path d="M11.7241 7.86207H9.7931V9.7931H11.7241V7.86207Z" fill="black"/>
    <path d="M13.6552 7.86207H11.7241V9.7931H13.6552V7.86207Z" fill="black"/>
    <path d="M17.5172 7.86207H15.5862V9.7931H17.5172V7.86207Z" fill="black"/>
    <path d="M25.2414 7.86207H23.3103V9.7931H25.2414V7.86207Z" fill="black"/>
    <path d="M27.1724 7.86207H25.2414V9.7931H27.1724V7.86207Z" fill="black"/>
    <path d="M31.0345 7.86207H29.1034V9.7931H31.0345V7.86207Z" fill="black"/>
    <path d="M34.8966 7.86207H32.9655V9.7931H34.8966V7.86207Z" fill="black"/>
    <path d="M40.6897 7.86207H38.7586V9.7931H40.6897V7.86207Z" fill="black"/>
    <path d="M48.4138 7.86207H46.4828V9.7931H48.4138V7.86207Z" fill="black"/>
    <path d="M52.2759 7.86207H50.3448V9.7931H52.2759V7.86207Z" fill="black"/>
    <path d="M54.2069 7.86207H52.2759V9.7931H54.2069V7.86207Z" fill="black"/>
    <path d="M56.1379 7.86207H54.2069V9.7931H56.1379V7.86207Z" fill="black"/>
    <path d="M60 7.86207H58.069V9.7931H60V7.86207Z" fill="black"/>
    <path d="M5.93103 9.7931H4V11.7241H5.93103V9.7931Z" fill="black"/>
    <path d="M9.7931 9.7931H7.86207V11.7241H9.7931V9.7931Z" fill="black"/>
    <path d="M11.7241 9.7931H9.7931V11.7241H11.7241V9.7931Z" fill="black"/>
    <path d="M13.6552 9.7931H11.7241V11.7241H13.6552V9.7931Z" fill="black"/>
    <path d="M17.5172 9.7931H15.5862V11.7241H17.5172V9.7931Z" fill="black"/>
    <path d="M23.3103 9.7931H21.3793V11.7241H23.3103V9.7931Z" fill="black"/>
    <path d="M25.2414 9.7931H23.3103V11.7241H25.2414V9.7931Z" fill="black"/>
    <path d="M27.1724 9.7931H25.2414V11.7241H27.1724V9.7931Z" fill="black"/>
    <path d="M29.1034 9.7931H27.1724V11.7241H29.1034V9.7931Z" fill="black"/>
    <path d="M31.0345 9.7931H29.1034V11.7241H31.0345V9.7931Z" fill="black"/>
    <path d="M32.9655 9.7931H31.0345V11.7241H32.9655V9.7931Z" fill="black"/>
    <path d="M36.8276 9.7931H34.8966V11.7241H36.8276V9.7931Z" fill="black"/>
    <path d="M40.6897 9.7931H38.7586V11.7241H40.6897V9.7931Z" fill="black"/>
    <path d="M42.6207 9.7931H40.6897V11.7241H42.6207V9.7931Z" fill="black"/>
    <path d="M44.5517 9.7931H42.6207V11.7241H44.5517V9.7931Z" fill="black"/>
    <path d="M48.4138 9.7931H46.4828V11.7241H48.4138V9.7931Z" fill="black"/>
    <path d="M52.2759 9.7931H50.3448V11.7241H52.2759V9.7931Z" fill="black"/>
    <path d="M54.2069 9.7931H52.2759V11.7241H54.2069V9.7931Z" fill="black"/>
    <path d="M56.1379 9.7931H54.2069V11.7241H56.1379V9.7931Z" fill="black"/>
    <path d="M60 9.7931H58.069V11.7241H60V9.7931Z" fill="black"/>
    <path d="M5.93103 11.7241H4V13.6552H5.93103V11.7241Z" fill="black"/>
    <path d="M9.7931 11.7241H7.86207V13.6552H9.7931V11.7241Z" fill="black"/>
    <path d="M11.7241 11.7241H9.7931V13.6552H11.7241V11.7241Z" fill="black"/>
    <path d="M13.6552 11.7241H11.7241V13.6552H13.6552V11.7241Z" fill="black"/>
    <path d="M17.5172 11.7241H15.5862V13.6552H17.5172V11.7241Z" fill="black"/>
    <path d="M23.3103 11.7241H21.3793V13.6552H23.3103V11.7241Z" fill="black"/>
    <path d="M25.2414 11.7241H23.3103V13.6552H25.2414V11.7241Z" fill="black"/>
    <path d="M27.1724 11.7241H25.2414V13.6552H27.1724V11.7241Z" fill="black"/>
    <path d="M29.1034 11.7241H27.1724V13.6552H29.1034V11.7241Z" fill="black"/>
    <path d="M32.9655 11.7241H31.0345V13.6552H32.9655V11.7241Z" fill="black"/>
    <path d="M34.8966 11.7241H32.9655V13.6552H34.8966V11.7241Z" fill="black"/>
    <path d="M40.6897 11.7241H38.7586V13.6552H40.6897V11.7241Z" fill="black"/>
    <path d="M48.4138 11.7241H46.4828V13.6552H48.4138V11.7241Z" fill="black"/>
    <path d="M52.2759 11.7241H50.3448V13.6552H52.2759V11.7241Z" fill="black"/>
    <path d="M54.2069 11.7241H52.2759V13.6552H54.2069V11.7241Z" fill="black"/>
    <path d="M56.1379 11.7241H54.2069V13.6552H56.1379V11.7241Z" fill="black"/>
    <path d="M60 11.7241H58.069V13.6552H60V11.7241Z" fill="black"/>
    <path d="M5.93103 13.6552H4V15.5862H5.93103V13.6552Z" fill="black"/>
    <path d="M17.5172 13.6552H15.5862V15.5862H17.5172V13.6552Z" fill="black"/>
    <path d="M23.3103 13.6552H21.3793V15.5862H23.3103V13.6552Z" fill="black"/>
    <path d="M25.2414 13.6552H23.3103V15.5862H25.2414V13.6552Z" fill="black"/>
    <path d="M27.1724 13.6552H25.2414V15.5862H27.1724V13.6552Z" fill="black"/>
    <path d="M29.1034 13.6552H27.1724V15.5862H29.1034V13.6552Z" fill="black"/>
    <path d="M31.0345 13.6552H29.1034V15.5862H31.0345V13.6552Z" fill="black"/>
    <path d="M32.9655 13.6552H31.0345V15.5862H32.9655V13.6552Z" fill="black"/>
    <path d="M36.8276 13.6552H34.8966V15.5862H36.8276V13.6552Z" fill="black"/>
    <path d="M38.7586 13.6552H36.8276V15.5862H38.7586V13.6552Z" fill="black"/>
    <path d="M40.6897 13.6552H38.7586V15.5862H40.6897V13.6552Z" fill="black"/>
    <path d="M44.5517 13.6552H42.6207V15.5862H44.5517V13.6552Z" fill="black"/>
    <path d="M48.4138 13.6552H46.4828V15.5862H48.4138V13.6552Z" fill="black"/>
    <path d="M60 13.6552H58.069V15.5862H60V13.6552Z" fill="black"/>
    <path d="M5.93103 15.5862H4V17.5172H5.93103V15.5862Z" fill="black"/>
    <path d="M7.86207 15.5862H5.93103V17.5172H7.86207V15.5862Z" fill="black"/>
    <path d="M9.7931 15.5862H7.86207V17.5172H9.7931V15.5862Z" fill="black"/>
    <path d="M11.7241 15.5862H9.7931V17.5172H11.7241V15.5862Z" fill="black"/>
    <path d="M13.6552 15.5862H11.7241V17.5172H13.6552V15.5862Z" fill="black"/>
    <path d="M15.5862 15.5862H13.6552V17.5172H15.5862V15.5862Z" fill="black"/>
    <path d="M17.5172 15.5862H15.5862V17.5172H17.5172V15.5862Z" fill="black"/>
    <path d="M21.3793 15.5862H19.4483V17.5172H21.3793V15.5862Z" fill="black"/>
    <path d="M25.2414 15.5862H23.3103V17.5172H25.2414V15.5862Z" fill="black"/>
    <path d="M29.1034 15.5862H27.1724V17.5172H29.1034V15.5862Z" fill="black"/>
    <path d="M32.9655 15.5862H31.0345V17.5172H32.9655V15.5862Z" fill="black"/>
    <path d="M36.8276 15.5862H34.8966V17.5172H36.8276V15.5862Z" fill="black"/>
    <path d="M40.6897 15.5862H38.7586V17.5172H40.6897V15.5862Z" fill="black"/>
    <path d="M44.5517 15.5862H42.6207V17.5172H44.5517V15.5862Z" fill="black"/>
    <path d="M48.4138 15.5862H46.4828V17.5172H48.4138V15.5862Z" fill="black"/>
    <path d="M50.3448 15.5862H48.4138V17.5172H50.3448V15.5862Z" fill="black"/>
    <path d="M52.2759 15.5862H50.3448V17.5172H52.2759V15.5862Z" fill="black"/>
    <path d="M54.2069 15.5862H52.2759V17.5172H54.2069V15.5862Z" fill="black"/>
    <path d="M56.1379 15.5862H54.2069V17.5172H56.1379V15.5862Z" fill="black"/>
    <path d="M58.069 15.5862H56.1379V17.5172H58.069V15.5862Z" fill="black"/>
    <path d="M60 15.5862H58.069V17.5172H60V15.5862Z" fill="black"/>
    <path d="M25.2414 17.5172H23.3103V19.4483H25.2414V17.5172Z" fill="black"/>
    <path d="M27.1724 17.5172H25.2414V19.4483H27.1724V17.5172Z" fill="black"/>
    <path d="M29.1034 17.5172H27.1724V19.4483H29.1034V17.5172Z" fill="black"/>
    <path d="M32.9655 17.5172H31.0345V19.4483H32.9655V17.5172Z" fill="black"/>
    <path d="M38.7586 17.5172H36.8276V19.4483H38.7586V17.5172Z" fill="black"/>
    <path d="M7.86207 19.4483H5.93103V21.3793H7.86207V19.4483Z" fill="black"/>
    <path d="M9.7931 19.4483H7.86207V21.3793H9.7931V19.4483Z" fill="black"/>
    <path d="M11.7241 19.4483H9.7931V21.3793H11.7241V19.4483Z" fill="black"/>
    <path d="M17.5172 19.4483H15.5862V21.3793H17.5172V19.4483Z" fill="black"/>
    <path d="M19.4483 19.4483H17.5172V21.3793H19.4483V19.4483Z" fill="black"/>
    <path d="M21.3793 19.4483H19.4483V21.3793H21.3793V19.4483Z" fill="black"/>
    <path d="M27.1724 19.4483H25.2414V21.3793H27.1724V19.4483Z" fill="black"/>
    <path d="M31.0345 19.4483H29.1034V21.3793H31.0345V19.4483Z" fill="black"/>
    <path d="M34.8966 19.4483H32.9655V21.3793H34.8966V19.4483Z" fill="black"/>
    <path d="M40.6897 19.4483H38.7586V21.3793H40.6897V19.4483Z" fill="black"/>
    <path d="M42.6207 19.4483H40.6897V21.3793H42.6207V19.4483Z" fill="black"/>
    <path d="M46.4828 19.4483H44.5517V21.3793H46.4828V19.4483Z" fill="black"/>
    <path d="M60 19.4483H58.069V21.3793H60V19.4483Z" fill="black"/>
    <path d="M5.93103 21.3793H4V23.3103H5.93103V21.3793Z" fill="black"/>
    <path d="M9.7931 21.3793H7.86207V23.3103H9.7931V21.3793Z" fill="black"/>
    <path d="M13.6552 21.3793H11.7241V23.3103H13.6552V21.3793Z" fill="black"/>
    <path d="M19.4483 21.3793H17.5172V23.3103H19.4483V21.3793Z" fill="black"/>
    <path d="M23.3103 21.3793H21.3793V23.3103H23.3103V21.3793Z" fill="black"/>
    <path d="M27.1724 21.3793H25.2414V23.3103H27.1724V21.3793Z" fill="black"/>
    <path d="M29.1034 21.3793H27.1724V23.3103H29.1034V21.3793Z" fill="black"/>
    <path d="M32.9655 21.3793H31.0345V23.3103H32.9655V21.3793Z" fill="black"/>
    <path d="M40.6897 21.3793H38.7586V23.3103H40.6897V21.3793Z" fill="black"/>
    <path d="M44.5517 21.3793H42.6207V23.3103H44.5517V21.3793Z" fill="black"/>
    <path d="M48.4138 21.3793H46.4828V23.3103H48.4138V21.3793Z" fill="black"/>
    <path d="M50.3448 21.3793H48.4138V23.3103H50.3448V21.3793Z" fill="black"/>
    <path d="M52.2759 21.3793H50.3448V23.3103H52.2759V21.3793Z" fill="black"/>
    <path d="M54.2069 21.3793H52.2759V23.3103H54.2069V21.3793Z" fill="black"/>
    <path d="M56.1379 21.3793H54.2069V23.3103H56.1379V21.3793Z" fill="black"/>
    <path d="M58.069 21.3793H56.1379V23.3103H58.069V21.3793Z" fill="black"/>
    <path d="M5.93103 23.3103H4V25.2414H5.93103V23.3103Z" fill="black"/>
    <path d="M11.7241 23.3103H9.7931V25.2414H11.7241V23.3103Z" fill="black"/>
    <path d="M17.5172 23.3103H15.5862V25.2414H17.5172V23.3103Z" fill="black"/>
    <path d="M21.3793 23.3103H19.4483V25.2414H21.3793V23.3103Z" fill="black"/>
    <path d="M25.2414 23.3103H23.3103V25.2414H25.2414V23.3103Z" fill="black"/>
    <path d="M29.1034 23.3103H27.1724V25.2414H29.1034V23.3103Z" fill="black"/>
    <path d="M31.0345 23.3103H29.1034V25.2414H31.0345V23.3103Z" fill="black"/>
    <path d="M34.8966 23.3103H32.9655V25.2414H34.8966V23.3103Z" fill="black"/>
    <path d="M38.7586 23.3103H36.8276V25.2414H38.7586V23.3103Z" fill="black"/>
    <path d="M48.4138 23.3103H46.4828V25.2414H48.4138V23.3103Z" fill="black"/>
    <path d="M50.3448 23.3103H48.4138V25.2414H50.3448V23.3103Z" fill="black"/>
    <path d="M54.2069 23.3103H52.2759V25.2414H54.2069V23.3103Z" fill="black"/>
    <path d="M60 23.3103H58.069V25.2414H60V23.3103Z" fill="black"/>
    <path d="M7.86207 25.2414H5.93103V27.1724H7.86207V25.2414Z" fill="black"/>
    <path d="M15.5862 25.2414H13.6552V27.1724H15.5862V25.2414Z" fill="black"/>
    <path d="M19.4483 25.2414H17.5172V27.1724H19.4483V25.2414Z" fill="black"/>
    <path d="M25.2414 25.2414H23.3103V27.1724H25.2414V25.2414Z" fill="black"/>
    <path d="M29.1034 25.2414H27.1724V27.1724H29.1034V25.2414Z" fill="black"/>
    <path d="M31.0345 25.2414H29.1034V27.1724H31.0345V25.2414Z" fill="black"/>
    <path d="M36.8276 25.2414H34.8966V27.1724H36.8276V25.2414Z" fill="black"/>
    <path d="M38.7586 25.2414H36.8276V27.1724H38.7586V25.2414Z" fill="black"/>
    <path d="M42.6207 25.2414H40.6897V27.1724H42.6207V25.2414Z" fill="black"/>
    <path d="M44.5517 25.2414H42.6207V27.1724H44.5517V25.2414Z" fill="black"/>
    <path d="M46.4828 25.2414H44.5517V27.1724H46.4828V25.2414Z" fill="black"/>
    <path d="M48.4138 25.2414H46.4828V27.1724H48.4138V25.2414Z" fill="black"/>
    <path d="M50.3448 25.2414H48.4138V27.1724H50.3448V25.2414Z" fill="black"/>
    <path d="M58.069 25.2414H56.1379V27.1724H58.069V25.2414Z" fill="black"/>
    <path d="M5.93103 27.1724H4V29.1034H5.93103V27.1724Z" fill="black"/>
    <path d="M7.86207 27.1724H5.93103V29.1034H7.86207V27.1724Z" fill="black"/>
    <path d="M9.7931 27.1724H7.86207V29.1034H9.7931V27.1724Z" fill="black"/>
    <path d="M15.5862 27.1724H13.6552V29.1034H15.5862V27.1724Z" fill="black"/>
    <path d="M17.5172 27.1724H15.5862V29.1034H17.5172V27.1724Z" fill="black"/>
    <path d="M23.3103 27.1724H21.3793V29.1034H23.3103V27.1724Z" fill="black"/>
    <path d="M25.2414 27.1724H23.3103V29.1034H25.2414V27.1724Z" fill="black"/>
    <path d="M29.1034 27.1724H27.1724V29.1034H29.1034V27.1724Z" fill="black"/>
    <path d="M32.9655 27.1724H31.0345V29.1034H32.9655V27.1724Z" fill="black"/>
    <path d="M34.8966 27.1724H32.9655V29.1034H34.8966V27.1724Z" fill="black"/>
    <path d="M36.8276 27.1724H34.8966V29.1034H36.8276V27.1724Z" fill="black"/>
    <path d="M38.7586 27.1724H36.8276V29.1034H38.7586V27.1724Z" fill="black"/>
    <path d="M40.6897 27.1724H38.7586V29.1034H40.6897V27.1724Z" fill="black"/>
    <path d="M52.2759 27.1724H50.3448V29.1034H52.2759V27.1724Z" fill="black"/>
    <path d="M7.86207 29.1034H5.93103V31.0345H7.86207V29.1034Z" fill="black"/>
    <path d="M9.7931 29.1034H7.86207V31.0345H9.7931V29.1034Z" fill="black"/>
    <path d="M23.3103 29.1034H21.3793V31.0345H23.3103V29.1034Z" fill="black"/>
    <path d="M25.2414 29.1034H23.3103V31.0345H25.2414V29.1034Z" fill="black"/>
    <path d="M27.1724 29.1034H25.2414V31.0345H27.1724V29.1034Z" fill="black"/>
    <path d="M29.1034 29.1034H27.1724V31.0345H29.1034V29.1034Z" fill="black"/>
    <path d="M38.7586 29.1034H36.8276V31.0345H38.7586V29.1034Z" fill="black"/>
    <path d="M42.6207 29.1034H40.6897V31.0345H42.6207V29.1034Z" fill="black"/>
    <path d="M52.2759 29.1034H50.3448V31.0345H52.2759V29.1034Z" fill="black"/>
    <path d="M56.1379 29.1034H54.2069V31.0345H56.1379V29.1034Z" fill="black"/>
    <path d="M7.86207 31.0345H5.93103V32.9655H7.86207V31.0345Z" fill="black"/>
    <path d="M17.5172 31.0345H15.5862V32.9655H17.5172V31.0345Z" fill="black"/>
    <path d="M19.4483 31.0345H17.5172V32.9655H19.4483V31.0345Z" fill="black"/>
    <path d="M25.2414 31.0345H23.3103V32.9655H25.2414V31.0345Z" fill="black"/>
    <path d="M38.7586 31.0345H36.8276V32.9655H38.7586V31.0345Z" fill="black"/>
    <path d="M44.5517 31.0345H42.6207V32.9655H44.5517V31.0345Z" fill="black"/>
    <path d="M46.4828 31.0345H44.5517V32.9655H46.4828V31.0345Z" fill="black"/>
    <path d="M50.3448 31.0345H48.4138V32.9655H50.3448V31.0345Z" fill="black"/>
    <path d="M52.2759 31.0345H50.3448V32.9655H52.2759V31.0345Z" fill="black"/>
    <path d="M54.2069 31.0345H52.2759V32.9655H54.2069V31.0345Z" fill="black"/>
    <path d="M56.1379 31.0345H54.2069V32.9655H56.1379V31.0345Z" fill="black"/>
    <path d="M58.069 31.0345H56.1379V32.9655H58.069V31.0345Z" fill="black"/>
    <path d="M5.93103 32.9655H4V34.8966H5.93103V32.9655Z" fill="black"/>
    <path d="M9.7931 32.9655H7.86207V34.8966H9.7931V32.9655Z" fill="black"/>
    <path d="M13.6552 32.9655H11.7241V34.8966H13.6552V32.9655Z" fill="black"/>
    <path d="M15.5862 32.9655H13.6552V34.8966H15.5862V32.9655Z" fill="black"/>
    <path d="M19.4483 32.9655H17.5172V34.8966H19.4483V32.9655Z" fill="black"/>
    <path d="M25.2414 32.9655H23.3103V34.8966H25.2414V32.9655Z" fill="black"/>
    <path d="M29.1034 32.9655H27.1724V34.8966H29.1034V32.9655Z" fill="black"/>
    <path d="M34.8966 32.9655H32.9655V34.8966H34.8966V32.9655Z" fill="black"/>
    <path d="M40.6897 32.9655H38.7586V34.8966H40.6897V32.9655Z" fill="black"/>
    <path d="M44.5517 32.9655H42.6207V34.8966H44.5517V32.9655Z" fill="black"/>
    <path d="M50.3448 32.9655H48.4138V34.8966H50.3448V32.9655Z" fill="black"/>
    <path d="M56.1379 32.9655H54.2069V34.8966H56.1379V32.9655Z" fill="black"/>
    <path d="M60 32.9655H58.069V34.8966H60V32.9655Z" fill="black"/>
    <path d="M5.93103 34.8966H4V36.8276H5.93103V34.8966Z" fill="black"/>
    <path d="M7.86207 34.8966H5.93103V36.8276H7.86207V34.8966Z" fill="black"/>
    <path d="M11.7241 34.8966H9.7931V36.8276H11.7241V34.8966Z" fill="black"/>
    <path d="M13.6552 34.8966H11.7241V36.8276H13.6552V34.8966Z" fill="black"/>
    <path d="M17.5172 34.8966H15.5862V36.8276H17.5172V34.8966Z" fill="black"/>
    <path d="M19.4483 34.8966H17.5172V36.8276H19.4483V34.8966Z" fill="black"/>
    <path d="M21.3793 34.8966H19.4483V36.8276H21.3793V34.8966Z" fill="black"/>
    <path d="M23.3103 34.8966H21.3793V36.8276H23.3103V34.8966Z" fill="black"/>
    <path d="M25.2414 34.8966H23.3103V36.8276H25.2414V34.8966Z" fill="black"/>
    <path d="M29.1034 34.8966H27.1724V36.8276H29.1034V34.8966Z" fill="black"/>
    <path d="M31.0345 34.8966H29.1034V36.8276H31.0345V34.8966Z" fill="black"/>
    <path d="M36.8276 34.8966H34.8966V36.8276H36.8276V34.8966Z" fill="black"/>
    <path d="M50.3448 34.8966H48.4138V36.8276H50.3448V34.8966Z" fill="black"/>
    <path d="M56.1379 34.8966H54.2069V36.8276H56.1379V34.8966Z" fill="black"/>
    <path d="M58.069 34.8966H56.1379V36.8276H58.069V34.8966Z" fill="black"/>
    <path d="M7.86207 36.8276H5.93103V38.7586H7.86207V36.8276Z" fill="black"/>
    <path d="M11.7241 36.8276H9.7931V38.7586H11.7241V36.8276Z" fill="black"/>
    <path d="M23.3103 36.8276H21.3793V38.7586H23.3103V36.8276Z" fill="black"/>
    <path d="M25.2414 36.8276H23.3103V38.7586H25.2414V36.8276Z" fill="black"/>
    <path d="M27.1724 36.8276H25.2414V38.7586H27.1724V36.8276Z" fill="black"/>
    <path d="M29.1034 36.8276H27.1724V38.7586H29.1034V36.8276Z" fill="black"/>
    <path d="M38.7586 36.8276H36.8276V38.7586H38.7586V36.8276Z" fill="black"/>
    <path d="M42.6207 36.8276H40.6897V38.7586H42.6207V36.8276Z" fill="black"/>
    <path d="M52.2759 36.8276H50.3448V38.7586H52.2759V36.8276Z" fill="black"/>
    <path d="M54.2069 36.8276H52.2759V38.7586H54.2069V36.8276Z" fill="black"/>
    <path d="M56.1379 36.8276H54.2069V38.7586H56.1379V36.8276Z" fill="black"/>
    <path d="M58.069 36.8276H56.1379V38.7586H58.069V36.8276Z" fill="black"/>
    <path d="M5.93103 38.7586H4V40.6897H5.93103V38.7586Z" fill="black"/>
    <path d="M17.5172 38.7586H15.5862V40.6897H17.5172V38.7586Z" fill="black"/>
    <path d="M19.4483 38.7586H17.5172V40.6897H19.4483V38.7586Z" fill="black"/>
    <path d="M21.3793 38.7586H19.4483V40.6897H21.3793V38.7586Z" fill="black"/>
    <path d="M23.3103 38.7586H21.3793V40.6897H23.3103V38.7586Z" fill="black"/>
    <path d="M27.1724 38.7586H25.2414V40.6897H27.1724V38.7586Z" fill="black"/>
    <path d="M31.0345 38.7586H29.1034V40.6897H31.0345V38.7586Z" fill="black"/>
    <path d="M32.9655 38.7586H31.0345V40.6897H32.9655V38.7586Z" fill="black"/>
    <path d="M36.8276 38.7586H34.8966V40.6897H36.8276V38.7586Z" fill="black"/>
    <path d="M42.6207 38.7586H40.6897V40.6897H42.6207V38.7586Z" fill="black"/>
    <path d="M46.4828 38.7586H44.5517V40.6897H46.4828V38.7586Z" fill="black"/>
    <path d="M48.4138 38.7586H46.4828V40.6897H48.4138V38.7586Z" fill="black"/>
    <path d="M52.2759 38.7586H50.3448V40.6897H52.2759V38.7586Z" fill="black"/>
    <path d="M58.069 38.7586H56.1379V40.6897H58.069V38.7586Z" fill="black"/>
    <path d="M9.7931 40.6897H7.86207V42.6207H9.7931V40.6897Z" fill="black"/>
    <path d="M13.6552 40.6897H11.7241V42.6207H13.6552V40.6897Z" fill="black"/>
    <path d="M19.4483 40.6897H17.5172V42.6207H19.4483V40.6897Z" fill="black"/>
    <path d="M21.3793 40.6897H19.4483V42.6207H21.3793V40.6897Z" fill="black"/>
    <path d="M27.1724 40.6897H25.2414V42.6207H27.1724V40.6897Z" fill="black"/>
    <path d="M29.1034 40.6897H27.1724V42.6207H29.1034V40.6897Z" fill="black"/>
    <path d="M31.0345 40.6897H29.1034V42.6207H31.0345V40.6897Z" fill="black"/>
    <path d="M36.8276 40.6897H34.8966V42.6207H36.8276V40.6897Z" fill="black"/>
    <path d="M38.7586 40.6897H36.8276V42.6207H38.7586V40.6897Z" fill="black"/>
    <path d="M40.6897 40.6897H38.7586V42.6207H40.6897V40.6897Z" fill="black"/>
    <path d="M42.6207 40.6897H40.6897V42.6207H42.6207V40.6897Z" fill="black"/>
    <path d="M50.3448 40.6897H48.4138V42.6207H50.3448V40.6897Z" fill="black"/>
    <path d="M52.2759 40.6897H50.3448V42.6207H52.2759V40.6897Z" fill="black"/>
    <path d="M54.2069 40.6897H52.2759V42.6207H54.2069V40.6897Z" fill="black"/>
    <path d="M56.1379 40.6897H54.2069V42.6207H56.1379V40.6897Z" fill="black"/>
    <path d="M60 40.6897H58.069V42.6207H60V40.6897Z" fill="black"/>
    <path d="M11.7241 42.6207H9.7931V44.5517H11.7241V42.6207Z" fill="black"/>
    <path d="M13.6552 42.6207H11.7241V44.5517H13.6552V42.6207Z" fill="black"/>
    <path d="M15.5862 42.6207H13.6552V44.5517H15.5862V42.6207Z" fill="black"/>
    <path d="M17.5172 42.6207H15.5862V44.5517H17.5172V42.6207Z" fill="black"/>
    <path d="M19.4483 42.6207H17.5172V44.5517H19.4483V42.6207Z" fill="black"/>
    <path d="M21.3793 42.6207H19.4483V44.5517H21.3793V42.6207Z" fill="black"/>
    <path d="M25.2414 42.6207H23.3103V44.5517H25.2414V42.6207Z" fill="black"/>
    <path d="M31.0345 42.6207H29.1034V44.5517H31.0345V42.6207Z" fill="black"/>
    <path d="M32.9655 42.6207H31.0345V44.5517H32.9655V42.6207Z" fill="black"/>
    <path d="M34.8966 42.6207H32.9655V44.5517H34.8966V42.6207Z" fill="black"/>
    <path d="M38.7586 42.6207H36.8276V44.5517H38.7586V42.6207Z" fill="black"/>
    <path d="M42.6207 42.6207H40.6897V44.5517H42.6207V42.6207Z" fill="black"/>
    <path d="M44.5517 42.6207H42.6207V44.5517H44.5517V42.6207Z" fill="black"/>
    <path d="M46.4828 42.6207H44.5517V44.5517H46.4828V42.6207Z" fill="black"/>
    <path d="M48.4138 42.6207H46.4828V44.5517H48.4138V42.6207Z" fill="black"/>
    <path d="M50.3448 42.6207H48.4138V44.5517H50.3448V42.6207Z" fill="black"/>
    <path d="M52.2759 42.6207H50.3448V44.5517H52.2759V42.6207Z" fill="black"/>
    <path d="M21.3793 44.5517H19.4483V46.4828H21.3793V44.5517Z" fill="black"/>
    <path d="M27.1724 44.5517H25.2414V46.4828H27.1724V44.5517Z" fill="black"/>
    <path d="M31.0345 44.5517H29.1034V46.4828H31.0345V44.5517Z" fill="black"/>
    <path d="M38.7586 44.5517H36.8276V46.4828H38.7586V44.5517Z" fill="black"/>
    <path d="M40.6897 44.5517H38.7586V46.4828H40.6897V44.5517Z" fill="black"/>
    <path d="M44.5517 44.5517H42.6207V46.4828H44.5517V44.5517Z" fill="black"/>
    <path d="M52.2759 44.5517H50.3448V46.4828H52.2759V44.5517Z" fill="black"/>
    <path d="M54.2069 44.5517H52.2759V46.4828H54.2069V44.5517Z" fill="black"/>
    <path d="M58.069 44.5517H56.1379V46.4828H58.069V44.5517Z" fill="black"/>
    <path d="M5.93103 46.4828H4V48.4138H5.93103V46.4828Z" fill="black"/>
    <path d="M7.86207 46.4828H5.93103V48.4138H7.86207V46.4828Z" fill="black"/>
    <path d="M9.7931 46.4828H7.86207V48.4138H9.7931V46.4828Z" fill="black"/>
    <path d="M11.7241 46.4828H9.7931V48.4138H11.7241V46.4828Z" fill="black"/>
    <path d="M13.6552 46.4828H11.7241V48.4138H13.6552V46.4828Z" fill="black"/>
    <path d="M15.5862 46.4828H13.6552V48.4138H15.5862V46.4828Z" fill="black"/>
    <path d="M17.5172 46.4828H15.5862V48.4138H17.5172V46.4828Z" fill="black"/>
    <path d="M21.3793 46.4828H19.4483V48.4138H21.3793V46.4828Z" fill="black"/>
    <path d="M25.2414 46.4828H23.3103V48.4138H25.2414V46.4828Z" fill="black"/>
    <path d="M27.1724 46.4828H25.2414V48.4138H27.1724V46.4828Z" fill="black"/>
    <path d="M29.1034 46.4828H27.1724V48.4138H29.1034V46.4828Z" fill="black"/>
    <path d="M34.8966 46.4828H32.9655V48.4138H34.8966V46.4828Z" fill="black"/>
    <path d="M38.7586 46.4828H36.8276V48.4138H38.7586V46.4828Z" fill="black"/>
    <path d="M40.6897 46.4828H38.7586V48.4138H40.6897V46.4828Z" fill="black"/>
    <path d="M42.6207 46.4828H40.6897V48.4138H42.6207V46.4828Z" fill="black"/>
    <path d="M44.5517 46.4828H42.6207V48.4138H44.5517V46.4828Z" fill="black"/>
    <path d="M48.4138 46.4828H46.4828V48.4138H48.4138V46.4828Z" fill="black"/>
    <path d="M52.2759 46.4828H50.3448V48.4138H52.2759V46.4828Z" fill="black"/>
    <path d="M56.1379 46.4828H54.2069V48.4138H56.1379V46.4828Z" fill="black"/>
    <path d="M58.069 46.4828H56.1379V48.4138H58.069V46.4828Z" fill="black"/>
    <path d="M5.93103 48.4138H4V50.3448H5.93103V48.4138Z" fill="black"/>
    <path d="M17.5172 48.4138H15.5862V50.3448H17.5172V48.4138Z" fill="black"/>
    <path d="M25.2414 48.4138H23.3103V50.3448H25.2414V48.4138Z" fill="black"/>
    <path d="M27.1724 48.4138H25.2414V50.3448H27.1724V48.4138Z" fill="black"/>
    <path d="M29.1034 48.4138H27.1724V50.3448H29.1034V48.4138Z" fill="black"/>
    <path d="M31.0345 48.4138H29.1034V50.3448H31.0345V48.4138Z" fill="black"/>
    <path d="M32.9655 48.4138H31.0345V50.3448H32.9655V48.4138Z" fill="black"/>
    <path d="M34.8966 48.4138H32.9655V50.3448H34.8966V48.4138Z" fill="black"/>
    <path d="M38.7586 48.4138H36.8276V50.3448H38.7586V48.4138Z" fill="black"/>
    <path d="M40.6897 48.4138H38.7586V50.3448H40.6897V48.4138Z" fill="black"/>
    <path d="M42.6207 48.4138H40.6897V50.3448H42.6207V48.4138Z" fill="black"/>
    <path d="M44.5517 48.4138H42.6207V50.3448H44.5517V48.4138Z" fill="black"/>
    <path d="M52.2759 48.4138H50.3448V50.3448H52.2759V48.4138Z" fill="black"/>
    <path d="M60 48.4138H58.069V50.3448H60V48.4138Z" fill="black"/>
    <path d="M5.93103 50.3448H4V52.2759H5.93103V50.3448Z" fill="black"/>
    <path d="M9.7931 50.3448H7.86207V52.2759H9.7931V50.3448Z" fill="black"/>
    <path d="M11.7241 50.3448H9.7931V52.2759H11.7241V50.3448Z" fill="black"/>
    <path d="M13.6552 50.3448H11.7241V52.2759H13.6552V50.3448Z" fill="black"/>
    <path d="M17.5172 50.3448H15.5862V52.2759H17.5172V50.3448Z" fill="black"/>
    <path d="M23.3103 50.3448H21.3793V52.2759H23.3103V50.3448Z" fill="black"/>
    <path d="M25.2414 50.3448H23.3103V52.2759H25.2414V50.3448Z" fill="black"/>
    <path d="M27.1724 50.3448H25.2414V52.2759H27.1724V50.3448Z" fill="black"/>
    <path d="M31.0345 50.3448H29.1034V52.2759H31.0345V50.3448Z" fill="black"/>
    <path d="M32.9655 50.3448H31.0345V52.2759H32.9655V50.3448Z" fill="black"/>
    <path d="M38.7586 50.3448H36.8276V52.2759H38.7586V50.3448Z" fill="black"/>
    <path d="M44.5517 50.3448H42.6207V52.2759H44.5517V50.3448Z" fill="black"/>
    <path d="M46.4828 50.3448H44.5517V52.2759H46.4828V50.3448Z" fill="black"/>
    <path d="M48.4138 50.3448H46.4828V52.2759H48.4138V50.3448Z" fill="black"/>
    <path d="M50.3448 50.3448H48.4138V52.2759H50.3448V50.3448Z" fill="black"/>
    <path d="M52.2759 50.3448H50.3448V52.2759H52.2759V50.3448Z" fill="black"/>
    <path d="M56.1379 50.3448H54.2069V52.2759H56.1379V50.3448Z" fill="black"/>
    <path d="M58.069 50.3448H56.1379V52.2759H58.069V50.3448Z" fill="black"/>
    <path d="M60 50.3448H58.069V52.2759H60V50.3448Z" fill="black"/>
    <path d="M5.93103 52.2759H4V54.2069H5.93103V52.2759Z" fill="black"/>
    <path d="M9.7931 52.2759H7.86207V54.2069H9.7931V52.2759Z" fill="black"/>
    <path d="M11.7241 52.2759H9.7931V54.2069H11.7241V52.2759Z" fill="black"/>
    <path d="M13.6552 52.2759H11.7241V54.2069H13.6552V52.2759Z" fill="black"/>
    <path d="M17.5172 52.2759H15.5862V54.2069H17.5172V52.2759Z" fill="black"/>
    <path d="M21.3793 52.2759H19.4483V54.2069H21.3793V52.2759Z" fill="black"/>
    <path d="M27.1724 52.2759H25.2414V54.2069H27.1724V52.2759Z" fill="black"/>
    <path d="M32.9655 52.2759H31.0345V54.2069H32.9655V52.2759Z" fill="black"/>
    <path d="M36.8276 52.2759H34.8966V54.2069H36.8276V52.2759Z" fill="black"/>
    <path d="M40.6897 52.2759H38.7586V54.2069H40.6897V52.2759Z" fill="black"/>
    <path d="M46.4828 52.2759H44.5517V54.2069H46.4828V52.2759Z" fill="black"/>
    <path d="M48.4138 52.2759H46.4828V54.2069H48.4138V52.2759Z" fill="black"/>
    <path d="M52.2759 52.2759H50.3448V54.2069H52.2759V52.2759Z" fill="black"/>
    <path d="M54.2069 52.2759H52.2759V54.2069H54.2069V52.2759Z" fill="black"/>
    <path d="M56.1379 52.2759H54.2069V54.2069H56.1379V52.2759Z" fill="black"/>
    <path d="M58.069 52.2759H56.1379V54.2069H58.069V52.2759Z" fill="black"/>
    <path d="M60 52.2759H58.069V54.2069H60V52.2759Z" fill="black"/>
    <path d="M5.93103 54.2069H4V56.1379H5.93103V54.2069Z" fill="black"/>
    <path d="M9.7931 54.2069H7.86207V56.1379H9.7931V54.2069Z" fill="black"/>
    <path d="M11.7241 54.2069H9.7931V56.1379H11.7241V54.2069Z" fill="black"/>
    <path d="M13.6552 54.2069H11.7241V56.1379H13.6552V54.2069Z" fill="black"/>
    <path d="M17.5172 54.2069H15.5862V56.1379H17.5172V54.2069Z" fill="black"/>
    <path d="M21.3793 54.2069H19.4483V56.1379H21.3793V54.2069Z" fill="black"/>
    <path d="M23.3103 54.2069H21.3793V56.1379H23.3103V54.2069Z" fill="black"/>
    <path d="M32.9655 54.2069H31.0345V56.1379H32.9655V54.2069Z" fill="black"/>
    <path d="M34.8966 54.2069H32.9655V56.1379H34.8966V54.2069Z" fill="black"/>
    <path d="M36.8276 54.2069H34.8966V56.1379H36.8276V54.2069Z" fill="black"/>
    <path d="M38.7586 54.2069H36.8276V56.1379H38.7586V54.2069Z" fill="black"/>
    <path d="M44.5517 54.2069H42.6207V56.1379H44.5517V54.2069Z" fill="black"/>
    <path d="M48.4138 54.2069H46.4828V56.1379H48.4138V54.2069Z" fill="black"/>
    <path d="M54.2069 54.2069H52.2759V56.1379H54.2069V54.2069Z" fill="black"/>
    <path d="M56.1379 54.2069H54.2069V56.1379H56.1379V54.2069Z" fill="black"/>
    <path d="M58.069 54.2069H56.1379V56.1379H58.069V54.2069Z" fill="black"/>
    <path d="M60 54.2069H58.069V56.1379H60V54.2069Z" fill="black"/>
    <path d="M5.93103 56.1379H4V58.069H5.93103V56.1379Z" fill="black"/>
    <path d="M17.5172 56.1379H15.5862V58.069H17.5172V56.1379Z" fill="black"/>
    <path d="M21.3793 56.1379H19.4483V58.069H21.3793V56.1379Z" fill="black"/>
    <path d="M23.3103 56.1379H21.3793V58.069H23.3103V56.1379Z" fill="black"/>
    <path d="M31.0345 56.1379H29.1034V58.069H31.0345V56.1379Z" fill="black"/>
    <path d="M38.7586 56.1379H36.8276V58.069H38.7586V56.1379Z" fill="black"/>
    <path d="M44.5517 56.1379H42.6207V58.069H44.5517V56.1379Z" fill="black"/>
    <path d="M52.2759 56.1379H50.3448V58.069H52.2759V56.1379Z" fill="black"/>
    <path d="M54.2069 56.1379H52.2759V58.069H54.2069V56.1379Z" fill="black"/>
    <path d="M56.1379 56.1379H54.2069V58.069H56.1379V56.1379Z" fill="black"/>
    <path d="M5.93103 58.069H4V60H5.93103V58.069Z" fill="black"/>
    <path d="M7.86207 58.069H5.93103V60H7.86207V58.069Z" fill="black"/>
    <path d="M9.7931 58.069H7.86207V60H9.7931V58.069Z" fill="black"/>
    <path d="M11.7241 58.069H9.7931V60H11.7241V58.069Z" fill="black"/>
    <path d="M13.6552 58.069H11.7241V60H13.6552V58.069Z" fill="black"/>
    <path d="M15.5862 58.069H13.6552V60H15.5862V58.069Z" fill="black"/>
    <path d="M17.5172 58.069H15.5862V60H17.5172V58.069Z" fill="black"/>
    <path d="M29.1034 58.069H27.1724V60H29.1034V58.069Z" fill="black"/>
    <path d="M31.0345 58.069H29.1034V60H31.0345V58.069Z" fill="black"/>
    <path d="M34.8966 58.069H32.9655V60H34.8966V58.069Z" fill="black"/>
    <path d="M38.7586 58.069H36.8276V60H38.7586V58.069Z" fill="black"/>
    <path d="M40.6897 58.069H38.7586V60H40.6897V58.069Z" fill="black"/>
    <path d="M44.5517 58.069H42.6207V60H44.5517V58.069Z" fill="black"/>
    <path d="M58.069 58.069H56.1379V60H58.069V58.069Z" fill="black"/>
  </g>
  <defs>
    <clipPath id="clip0_550_746">
      <rect width="64" height="64" rx="8" fill="white"/>
    </clipPath>
  </defs>
</svg>