<svg xmlns="http://www.w3.org/2000/svg" width="56" height="56" viewBox="0 0 56 56" fill="none">
  <path d="M28 35C31.8661 35 35 31.8661 35 28C35 24.1339 31.8661 21 28 21C24.1339 21 21 24.1339 21 28C21 31.8661 24.1339 35 28 35Z" stroke="#2970FF" stroke-width="3" stroke-linecap="round" stroke-linejoin="round"/>
  <path d="M45.7856 24.2559L43.2243 18.0712L46.6667 14L42 9.33329L37.951 12.7935L31.6349 10.196L30.1824 4.66663H25.6224L24.1479 10.2693L17.977 12.8705L14 9.33329L9.33335 14L12.7246 18.1739L10.2025 24.3747L4.66669 25.6666V30.3333L10.2693 31.8628L12.8701 38.0326L9.33335 42L14 46.6666L18.1794 43.2607L24.2597 45.762L25.6667 51.3333H30.3334L31.7439 45.7641L37.9286 43.2028C38.9595 43.9397 42 46.6666 42 46.6666L46.6667 42L43.2038 37.9152L45.7658 31.7286L51.3331 30.2801L51.3334 25.6666L45.7856 24.2559Z" stroke="#2970FF" stroke-width="3" stroke-linecap="round" stroke-linejoin="round"/>
</svg>