<svg xmlns="http://www.w3.org/2000/svg" width="56" height="56" viewBox="0 0 56 56" fill="none">
  <path d="M44.3333 7H11.6667C9.08934 7 7 9.08934 7 11.6667V44.3333C7 46.9107 9.08934 49 11.6667 49H44.3333C46.9107 49 49 46.9107 49 44.3333V11.6667C49 9.08934 46.9107 7 44.3333 7Z" stroke="#2970FF" stroke-width="3" stroke-linecap="round" stroke-linejoin="round"/>
  <path d="M24.2667 14H15.4C14.6268 14 14 14.6268 14 15.4V40.6C14 41.3733 14.6268 42 15.4 42H24.2667C25.0399 42 25.6667 41.3733 25.6667 40.6V15.4C25.6667 14.6268 25.0399 14 24.2667 14Z" stroke="#2970FF" stroke-width="3" stroke-linecap="round" stroke-linejoin="round"/>
  <path d="M40.6 14H31.7334C30.9601 14 30.3334 14.6268 30.3334 15.4V31.2667C30.3334 32.0399 30.9601 32.6667 31.7334 32.6667H40.6C41.3733 32.6667 42 32.0399 42 31.2667V15.4C42 14.6268 41.3733 14 40.6 14Z" stroke="#2970FF" stroke-width="3" stroke-linecap="round" stroke-linejoin="round"/>
</svg>