<svg xmlns="http://www.w3.org/2000/svg" width="57" height="70" viewBox="0 0 57 70" fill="none">
  <path d="M1.59216 0.909973H55.4922V54.936H1.59216V0.909973Z" fill="#F63D37"/>
  <path d="M49.5562 11.228L43.5222 20.986C42.8642 22.078 42.9622 22.946 43.2702 23.772L52.4262 47.194H14.5142C11.1122 47.194 8.46623 44.464 8.46623 41.202L8.43823 10.024C8.53623 5.992 14.4022 5.936 14.5142 10.01V39.242C14.5002 40.166 15.3122 41.202 16.3902 41.188H44.1522L36.9702 24.262C36.7882 23.618 36.6482 22.96 36.6482 22.316C36.6482 21.602 36.9702 20.454 37.4322 19.53L44.0402 8.652C44.5302 7.686 45.5102 7.028 46.6862 6.972C48.3242 6.902 49.7382 8.036 49.8082 9.786C49.8082 10.136 49.7242 10.892 49.5562 11.228Z" fill="white"/>
  <path d="M28.6402 30.926V10.01C28.6402 5.93599 34.5902 5.89399 34.6602 10.01V31.15C34.6602 35.994 31.0482 39.186 26.6242 39.186C22.2002 39.186 18.5742 35.91 18.5742 31.15V10.01C18.5742 5.93599 24.5942 5.93599 24.5942 10.01V30.926C24.5942 33.726 28.6402 33.908 28.6402 30.926Z" fill="white"/>
  <path d="M9.68419 60.004V68.572H7.29019V62.062H5.58219V65.45C5.58219 66.682 5.45619 68.684 2.47419 68.684C2.11019 68.684 1.84419 68.67 1.46619 68.572V66.528C1.64819 66.57 1.81619 66.612 1.99819 66.612C3.04819 66.612 3.17419 65.94 3.17419 64.736V60.004H9.68419Z" fill="#2C2E35"/>
  <path d="M13.3942 60.004L15.0742 63.602L16.4462 60.004H19.0502L15.2002 68.572H12.6242L13.7862 66.22L10.5662 60.004H13.3942Z" fill="#2C2E35"/>
  <path d="M19.8481 60.004H22.2561V63.602L24.8321 60.004H27.6461L24.3981 64.162L27.7301 68.572H24.7341L22.2561 64.89V68.572H19.8481V60.004Z" fill="#2C2E35"/>
  <path d="M40.7921 60.004V65.156L44.1101 60.004H46.4621V68.572H44.1381V63.434L40.8201 68.572H38.4681V60.004H40.7921ZM45.0341 58.17C44.5721 59.178 43.4801 59.542 42.4581 59.542C41.4501 59.542 40.3581 59.178 39.8961 58.17L41.2681 57.666C41.4921 58.254 42.0241 58.38 42.4581 58.38C42.9061 58.38 43.4381 58.254 43.6621 57.666L45.0341 58.17Z" fill="#2C2E35"/>
  <path d="M55.5902 60.004V68.572H53.1962V62.062H51.4742V65.45C51.4742 66.682 51.3482 68.684 48.3662 68.684C48.0162 68.684 47.7502 68.67 47.3582 68.572V66.528C47.5402 66.57 47.7222 66.612 47.8902 66.612C48.9402 66.612 49.0802 65.94 49.0802 64.736V60.004H55.5902Z" fill="#2C2E35"/>
  <path fill-rule="evenodd" clip-rule="evenodd" d="M27.8282 64.302C27.8282 61.95 29.3402 59.64 32.5602 59.64C35.7802 59.64 37.2782 61.95 37.2782 64.302C37.2782 66.64 35.7802 68.95 32.5602 68.95C29.3402 68.95 27.8282 66.64 27.8282 64.302ZM34.7442 64.302C34.7442 62.594 33.6942 61.754 32.5602 61.754C31.4122 61.754 30.3762 62.594 30.3762 64.302C30.3762 65.996 31.4122 66.836 32.5602 66.836C33.6942 66.836 34.7442 65.996 34.7442 64.302Z" fill="#2C2E35"/>
</svg>