<svg width="16" height="16" viewBox="0 0 16 16" fill="none" xmlns="http://www.w3.org/2000/svg">
<g id="uzbekista&#204;&#129;n" clip-path="url(#clip0_234_1593)">
<path id="Vector" d="M0.37775 5.56525C0.132688 6.333 -3.12445e-05 7.15091 5.51734e-09 7.99994C-3.12445e-05 8.849 0.132719 9.66697 0.377781 10.4347L8 10.7826L15.6222 10.4348C15.8673 9.667 16 8.849 16 8C16 7.15094 15.8673 6.333 15.6222 5.56522L8 5.21741L0.37775 5.56525Z" fill="#F0F0F0"/>
<g id="Group">
<path id="Vector_2" d="M15.6225 5.56525L8.00024 5.21744L0.377992 5.56525C0.305367 5.79288 0.242836 6.02497 0.19043 6.26091H15.8099C15.7576 6.02494 15.6951 5.79281 15.6225 5.56525Z" fill="#D80027"/>
<path id="Vector_3" d="M0.19043 9.73911C0.242773 9.97504 0.305305 10.2071 0.37793 10.4347L0.37868 10.4348L8.00012 10.7826L15.6223 10.4348C15.695 10.2071 15.7575 9.97504 15.8099 9.73911H0.19043Z" fill="#D80027"/>
</g>
<path id="Vector_4" d="M8.00012 16C11.5694 16 14.5922 13.6624 15.6223 10.4348H0.37793C1.40809 13.6623 4.43096 16 8.00012 16Z" fill="#6DA544"/>
<path id="Vector_5" d="M8.00015 3.05179e-05C4.43096 6.17679e-05 1.40815 2.33766 0.37793 5.56525L15.6223 5.56528C14.5922 2.33762 11.5694 -7.32107e-07 8.00015 3.05179e-05Z" fill="#338AF3"/>
<g id="Group_2">
<path id="Vector_6" d="M3.65616 3.30441C3.65616 2.55513 4.18276 1.9292 4.88598 1.77563C4.77791 1.75201 4.66576 1.73923 4.55057 1.73923C3.68613 1.73923 2.98535 2.43998 2.98535 3.30445C2.98535 4.16891 3.68607 4.86966 4.55057 4.86966C4.66576 4.86966 4.77788 4.85685 4.88598 4.83326C4.18279 4.67963 3.65616 4.0537 3.65616 3.30441Z" fill="#F0F0F0"/>
<path id="Vector_7" d="M5.81118 4.01587L5.91712 4.34196H6.25999L5.98262 4.54353L6.08855 4.86962L5.81118 4.66809L5.53374 4.86962L5.63971 4.54353L5.3623 4.34196H5.70518L5.81118 4.01587Z" fill="#F0F0F0"/>
<path id="Vector_8" d="M6.90584 4.01587L7.01181 4.34196H7.35469L7.07728 4.54353L7.18325 4.86962L6.90584 4.66809L6.62844 4.86962L6.73441 4.54353L6.45703 4.34196H6.79987L6.90584 4.01587Z" fill="#F0F0F0"/>
<path id="Vector_9" d="M7.99966 4.01587L8.10559 4.34196H8.4485L8.17109 4.54353L8.27703 4.86962L7.99966 4.66809L7.72222 4.86962L7.82822 4.54353L7.55078 4.34196H7.89369L7.99966 4.01587Z" fill="#F0F0F0"/>
<path id="Vector_10" d="M9.09438 4.01587L9.20035 4.34196H9.5432L9.26582 4.54353L9.37179 4.86962L9.09438 4.66809L8.81695 4.86962L8.92295 4.54353L8.64551 4.34196H8.98838L9.09438 4.01587Z" fill="#F0F0F0"/>
<path id="Vector_11" d="M10.189 4.01587L10.295 4.34196H10.6379L10.3605 4.54353L10.4665 4.86962L10.189 4.66809L9.91164 4.86962L10.0176 4.54353L9.74023 4.34196H10.0831L10.189 4.01587Z" fill="#F0F0F0"/>
<path id="Vector_12" d="M6.90584 2.8775L7.01181 3.20356H7.35469L7.07728 3.40516L7.18325 3.73122L6.90584 3.52969L6.62844 3.73122L6.73441 3.40516L6.45703 3.20356H6.79987L6.90584 2.8775Z" fill="#F0F0F0"/>
<path id="Vector_13" d="M7.99966 2.8775L8.10559 3.20356H8.4485L8.17109 3.40516L8.27703 3.73122L7.99966 3.52969L7.72222 3.73122L7.82822 3.40516L7.55078 3.20356H7.89369L7.99966 2.8775Z" fill="#F0F0F0"/>
<path id="Vector_14" d="M9.09438 2.8775L9.20035 3.20356H9.5432L9.26582 3.40516L9.37179 3.73122L9.09438 3.52969L8.81695 3.73122L8.92295 3.40516L8.64551 3.20356H8.98838L9.09438 2.8775Z" fill="#F0F0F0"/>
<path id="Vector_15" d="M10.189 2.8775L10.295 3.20356H10.6379L10.3605 3.40516L10.4665 3.73122L10.189 3.52969L9.91164 3.73122L10.0176 3.40516L9.74023 3.20356H10.0831L10.189 2.8775Z" fill="#F0F0F0"/>
<path id="Vector_16" d="M7.99966 1.73914L8.10559 2.06526H8.4485L8.17109 2.26679L8.27703 2.59292L7.99966 2.39139L7.72222 2.59292L7.82822 2.26679L7.55078 2.06526H7.89369L7.99966 1.73914Z" fill="#F0F0F0"/>
<path id="Vector_17" d="M9.09438 1.73914L9.20035 2.06526H9.5432L9.26582 2.26679L9.37179 2.59292L9.09438 2.39139L8.81695 2.59292L8.92295 2.26679L8.64551 2.06526H8.98838L9.09438 1.73914Z" fill="#F0F0F0"/>
<path id="Vector_18" d="M10.189 1.73914L10.295 2.06526H10.6379L10.3605 2.26679L10.4665 2.59292L10.189 2.39139L9.91164 2.59292L10.0176 2.26679L9.74023 2.06526H10.0831L10.189 1.73914Z" fill="#F0F0F0"/>
</g>
</g>
<defs>
<clipPath id="clip0_234_1593">
<rect width="16" height="16" fill="white"/>
</clipPath>
</defs>
</svg>
